<svg width="18" height="18" viewBox="0 0 18 18" fill="none" xmlns="http://www.w3.org/2000/svg">
<path d="M16.6133 11.2626C16.3657 11.2626 16.165 11.4633 16.165 11.7109V15.6913C16.1641 16.4338 15.5626 17.0355 14.8201 17.0362H2.24147C1.49898 17.0355 0.897462 16.4338 0.896587 15.6913V4.00923C0.897462 3.26692 1.49898 2.66522 2.24147 2.66435H6.22182C6.46943 2.66435 6.67011 2.46367 6.67011 2.21605C6.67011 1.96862 6.46943 1.76776 6.22182 1.76776H2.24147C1.00411 1.76916 0.00140092 2.77187 0 4.00923V15.6915C0.00140092 16.9288 1.00411 17.9315 2.24147 17.9329H14.8201C16.0575 17.9315 17.0602 16.9288 17.0616 15.6915V11.7109C17.0616 11.4633 16.8609 11.2626 16.6133 11.2626Z" fill="white"/>
<path d="M16.884 0.614257C16.0962 -0.173584 14.8189 -0.173584 14.0311 0.614257L6.03324 8.61209C5.97843 8.6669 5.93886 8.73484 5.91819 8.80944L4.86646 12.6065C4.8232 12.7621 4.86716 12.9288 4.98133 13.0432C5.09568 13.1574 5.26239 13.2013 5.41807 13.1582L9.21507 12.1063C9.28967 12.0857 9.35761 12.0461 9.41243 11.9913L17.4101 3.99327C18.1967 3.2049 18.1967 1.92867 17.4101 1.1403L16.884 0.614257ZM7.01003 8.90348L13.5556 2.3577L15.6666 4.4687L9.12086 11.0145L7.01003 8.90348ZM6.58836 9.74963L8.27488 11.4363L5.94201 12.0827L6.58836 9.74963ZM16.7762 3.35935L16.3007 3.83479L14.1895 1.72361L14.6652 1.24817C15.1028 0.81056 15.8123 0.81056 16.2499 1.24817L16.7762 1.77422C17.2131 2.21235 17.2131 2.92139 16.7762 3.35935Z" fill="white"/>
</svg>
