<svg width="22" height="22" viewBox="0 0 22 22" fill="none" xmlns="http://www.w3.org/2000/svg">
<path d="M21 12C20.7348 12 20.4804 12.1054 20.2929 12.2929C20.1054 12.4804 20 12.7348 20 13V17.213C19.9992 17.9519 19.7053 18.6603 19.1828 19.1828C18.6603 19.7053 17.9519 19.9992 17.213 20H4.787C4.04809 19.9992 3.33966 19.7053 2.81717 19.1828C2.29468 18.6603 2.00079 17.9519 2 17.213V13C2 12.7348 1.89464 12.4804 1.70711 12.2929C1.51957 12.1054 1.26522 12 1 12C0.734784 12 0.48043 12.1054 0.292893 12.2929C0.105357 12.4804 0 12.7348 0 13V17.213C0.00132359 18.4822 0.506092 19.699 1.40354 20.5965C2.30099 21.4939 3.51782 21.9987 4.787 22H17.213C18.4822 21.9987 19.699 21.4939 20.5965 20.5965C21.4939 19.699 21.9987 18.4822 22 17.213V13C22 12.7348 21.8946 12.4804 21.7071 12.2929C21.5196 12.1054 21.2652 12 21 12Z" fill="white"/>
<path d="M5.70692 7.70699L9.99992 3.414V16C9.99992 16.2652 10.1053 16.5196 10.2928 16.7071C10.4803 16.8946 10.7347 17 10.9999 17C11.2651 17 11.5195 16.8946 11.707 16.7071C11.8946 16.5196 11.9999 16.2652 11.9999 16V3.414L16.2929 7.70699C16.4815 7.88915 16.7341 7.98995 16.9963 7.98767C17.2585 7.98539 17.5093 7.88022 17.6947 7.69481C17.8801 7.50941 17.9853 7.25859 17.9876 6.9964C17.9899 6.7342 17.8891 6.4816 17.7069 6.293L11.7069 0.293C11.5194 0.105529 11.2651 0.000213623 10.9999 0.000213623C10.7348 0.000213623 10.4804 0.105529 10.2929 0.293L4.29292 6.293C4.11076 6.4816 4.00997 6.7342 4.01224 6.9964C4.01452 7.25859 4.11969 7.50941 4.3051 7.69481C4.49051 7.88022 4.74132 7.98539 5.00352 7.98767C5.26571 7.98995 5.51832 7.88915 5.70692 7.70699Z" fill="white"/>
</svg>
